<svg xmlns="http://www.w3.org/2000/svg" width="200" height="200" aria-hidden="true" data-bbox="17.5 4.368 152.989 187.732" preserveAspectRatio="none" viewBox="17.5 4.368 152.989 187.732"><path d="M148.2 177.8c-.2-.6-.5-1-1-1.3-.1-.4-.4-.7-.7-.8-1.4-.3-2.9-.4-4.3 0-.8 0-1.6-.1-2.3.2-.4 0-.8.2-1.1.5h-.2c-.3.1-.7.3-1 .4-.1 0-.2 0-.2.1-.3.4-1.2-.1-1.3.8-.2.1-.3.2-.5.3-.7-.5-1 .1-1.3.5-.3.3-.8.5-.7 1-.7.4-.7.9 0 1.3-.1.2-.1.5-.2.8-.5.3-.7.7-.2 1.3-.2.5 0 1 0 1.5-.1.4 0 .7.2 1l-.3 1.5c-1.3.5-.8 1.5-.5 2.3l.8.8c0 .5.4.5.8.5 0 .3.1.6.5.7h.8c.2.1.3.2.5.3s.5.2.8 0c.2 0 .4.1.5-.2.1 0 .2-.1.2-.1h.3c.1-.1.2-.1.2-.2l.3-.3c.3 0 .6.1.6.6-.1.3-.7.1-.5.8l2.4-1.5c-.5.3-.8.1-.9-.4v-.3h.2c-.1-.1-.1-.1-.2-.1v-.1l.1-.1h.1v.1l.1-.1h.1v-.2l-.1.1h-.1s0-.1-.1-.1v.1h-.2l-.1-.1v-.1c0-.2.1-.3.2-.4 0 0 .1 0 .1.1 0 0 0-.1-.1-.1.1-.1.3-.2.4-.4.2-.1.4-.3.6-.5-.2.1-.3.1-.5.2 0-.1.1-.2.1-.3 0-.5.3-.7.8-.6.1 0 .1.1.1.1h-.1c.1.1.1.1.2.1.1.1.1.2.1.2-.1 0-.1.1-.1.2h.2c.1.1.1.3.2.4l-.1.1h.2c.2.3.4.5.6.7v.3h.1c.4-.1 1 0 1.3-.5.8-.1.3-.6.3-.9.3-.3.9-.4 1.1-.8.3-.1.4-.2.5-.5.7-.1.9-.8 1.2-1.3.4-.4.5-1 .5-1.5.2-.1.2-.3.2-.5.1-.2.3-.5.3-.8.5-1.8.6-3.3.1-4.8m-8.9 6.8q-.15 0 0 0m8.2-2.2q0 .15 0 0v.1c-.1 0-.1 0 0-.1m-14.5 1.8c0 .1 0 .1-.1.1.1 0 .1-.1.1-.1M45.7 75.9c1.4 0 3 .3 3.5-1.8-1.6 0-2.9.2-3.5 1.8M105.6 67.3c-3.1-.6-6-.3-7.9 2.7-1.5 0-2.1 1.2-2.9 2.2-1.3.9-3.1 1.2-4 3.1 2.2 0 3.8-.6 5.1-2.1.7-.6 1.3-1.2 2-1.8l.9.6c1.8.8 2.6-.9 3.9-1.6.9-.5 2.4.3 3-1.1 2.8 0 4.4-1.9 6.6-3.5-2.9-1.1-4.9-.4-6.7 1.5M86.6 77.7c1.1.6 2.1.6 3-.2.2-.1-.2-1.1-.2-1.1-1.2 0-2.1.4-2.8 1.3M111.2 22.6q.45-.6.6-1.2l-.3-.6c-2.9-1-5.4-1.2-5.8 2.9l.5.5c2 .6 3.5-.4 5-1.6M77.5 41.1c-2 0-3.2 1.2-4 2.9.3 0 .7.1 1 .1 1.3-.7 2.4-1.6 3-3M92.8 31.5c-1.8 0-3.1.5-2.4 2.7 1.4-.3 2.6-.9 2.4-2.7M88.1 35.1l.6-.9c-1.7-1.4-1.3.2-1.5 1 .4.4.7.3.9-.1M130.1 58.5c.5.6 1.1.8 1.8.8 1.5-.2 2.9-1.1 4.4-1.4-.9.8-2.2 1.2-2.5 2.5 1.8-.3 3.6-.6 5.1-1.8 0-.5-.2-.9-.3-1.1.4-.1.8-.3 1.2-.5.1-.1.1-.2.2-.3q.3.15.6-.3c1.7-1.8 4-.3 5.9-.9.1 0 .2-.1.2-.3.1-.2 0-.3-.3-.5-1.9-.1-3.8-.3-5.7-.4-3.8 1.1-8.8-1.3-10.6 4.2M116.3 19c2.7 1.3 4.6-.4 6.8-1.5.7-.7 1.4-1.4.9-2.5-2.9.1-6.2-1.1-7.7 2.7-1.8.6-5.1-1-4.8 3 2.2 1.3 4 1 4.8-1.7M111.5 20.7v-.1zM42.6 64.6c1.4-.6 3.5-.2 3.6-2.9-1.4.4-2.5.6-3.7.9-1.9 1-2.5 2.5-2.6 5 1.8-.7 2.3-1.8 2.7-3M51.3 61.5c-.6-.9-1.3-1.7-1.2-2.9-.7.1-1.8-.1-1.6 1.1.2 1.7 1.6 1.6 2.8 1.8M21.2 84.8c-1 1.2-3.6.4-3.7 2.8 1.7-.5 3.4-.8 4.5-2.4 1.4-.3 2.3-1.8 3.9-1.6.4-.9 1.2-1.6 1-2.7-2.2.9-4.5 1.6-5.7 3.9M43.5 69.4c-3-.1-4.5 2.6-6.9 3.7L31.8 77c-1.3 1.6-4.7.9-4.7 4 2.4.1 4.4-.9 5.8-2.8 1.6-1.3 3.9-1.7 4.8-3.9.3-.1.5-.1.8-.2 2.2-.4 4.1-1.3 5.1-3.4.2-.6.1-1-.1-1.3"/><path d="M26.9 80.9v.1h.1v-.1zM46.6 71.2h-2.4c.2 1.2-1.8 1.2-1.4 2.6 1.4-.7 2.8-1.3 3.8-2.6M39.8 74.1c-.7.9-1.4 1.9-2.1 2.8 1.5.6 2.4-1.2 3.8-1 .1-.3.1-.6.2-.9-.4-.8-1.2-.8-1.9-.9M117.3 53.7c1.4-1.5 3.2-.7 4.9-1.1 1.6-.4 3.2-.7 4.8-1.1 2.3-.8 4.9-.3 7-1.7.4-.7.4-1.3.1-2-2.5-2-4.8 0-7.2.4-.4.1-.8.4-1.1.7-1.9-1.5-3.4-.3-4.8 1.2-.1.2-.1.4-.1.5-1.9-.8-3.3-.3-4.4 1.5v.7c-1.1.7-2.7.5-3.3 1.9 1.7 1.1 2.9.1 4.1-1M131.8 20.7q0-.15 0 0M142.6 188.9c-.5 0-.8-.3-.8-.8-.2-.1-.3-.3-.3-.5-.2-.1-.2-.3-.2-.5-.3 0-.8-.2-.5.5-.1.5-.5.9-1 1-.1.2-.2.3-.3.5h.5c.2.1.3.2.2.4-.1 0-.1-.1-.2-.1h-.2v.3c0 .5.1.8.7.8.2-.2.4-.4.6-.5-.1-.2-.2-.4 0-.5.3-.2.3.3.5.3.3.2.5.2.7 0 .1-.1.2-.1.2-.2s.1-.2.1-.2z"/><path d="M141 189.9c.2.1.4 0 .5-.2-.1.1-.3 0-.5.2M149.8 58.9c-1.3-.7-2.3.2-3.4.7-1.2-.2-2.4-.5-3 1.1-2.5-1.2-3.7 1.7-5.8 1.9-2.1-.2-4 .1-5.9.9-3.6.2-7.2.7-10.6 1.9-1.7-.1-3.6-.6-4.8 1.8h3.9c3.9 1.3 6.9-2.5 10.6-2.1l6.9-2.1c2.4 1 4-.4 5.6-1.9 1.1.3 2.1.1 3-.7 1.4.5 2.6.1 3.8-.5.1.1 0-.9-.3-1m-12.1 4.2v-.5c.1.2.1.4 0 .5M57.1 60.6q0-.15 0 0v-.1zM152.5 53.6c.2.5.4.5.7.1 1.8-.6 4.2 1 5.8-1.9-2.6-.2-4.6.6-6.5 1.8M140 189.3s0-.1 0 0M57.1 60.6c-2.1-.7-3.6 1.7-5.6 1.1-.3.6-.7 1.2-1 1.8-1.4 1.2-3.9 1.2-4 3.8 1-.3 1.9-.5 2.9-.8 1 .2 1.6-.2 1.9-1.1l.2.2c.9.1 1.7-.3 2.3-.9 1.5-.9 3.1-1.6 3.5-3.6-.1-.1-.1-.3-.2-.5M170.3 163.2c.2-.8.3-1.5 0-2.3-.1-.3-.2-.5-.5-.6 0-.2-.2-.3-.4-.4-.7-.1-1.4-.2-2.2 0-.4 0-.8-.1-1.2.1-.2 0-.4.1-.5.3h-.1c-.2.1-.3.1-.5.2h-.1c-.2.2-.6-.1-.6.4-.1 0-.2.1-.3.1-.3-.2-.5 0-.7.2-.2.1-.4.2-.4.5-.3.2-.4.4 0 .7 0 .1-.1.2-.1.4-.2.2-.4.4-.1.6-.1.3 0 .5 0 .8v-.1.1c-.1.2 0 .4.1.5 0 .3-.1.5-.1.8-.6.3-.4.7-.3 1.2.1.1.2.3.4.4 0 .3.2.2.4.2 0 .2.1.3.2.3h.4c.1 0 .2.1.2.1.1 0 .2.1.4 0 .1 0 .2 0 .3-.1h.2c.1 0 .1 0 .1-.1s.1-.1.1-.2q.3 0 .3.3c0 .1-.4.1-.2.4.4-.3.8-.5 1.2-.8l.3-.3c.1 0 .2 0 .3-.1.1.1.3.1.4 0 .1 0 .1 0 .1-.1v-.1h.1c.2-.1.5 0 .6-.3.4 0 .2-.3.2-.5.2-.2.4-.2.5-.4.1 0 .2-.1.3-.2.4-.1.5-.4.6-.7.2-.2.2-.5.3-.7.1-.1.1-.2.1-.3.1 0 .2-.1.2-.3m-7.1 3.7s.1-.1 0 0q.15-.15 0 0c.1-.1 0 0 0 0m.4-4.7s0 .1 0 0q0 .15 0 0c0 .1 0 0 0 0m2.3 2.2q-.15 0 0 0-.15 0 0 0m3.1-3s.1 0 0 0c.1 0 0 0 0 0m-3.5 5.6q0 .15 0 0c0 .1 0 0 0 0m3.9-7q0-.15 0 0 0-.15 0 0M143.5 47.9c-.1-.2-.2-.5-.2-.8-1-.8-1.4 0-1.9.7-2 .8-4.8-1-6 2.1 2.9-.1 6.1 1.2 8.1-2"/><path d="M161 35.2s-.1 0 0 0q-.15 0 0 0c-.7-.3-1.3-.6-2-.9.3-.4.6-.8.9-1.1 1-.3 1.1-1 .9-1.8-2-1.8-4.4-.6-6.6-.7h-2c-1.5.1-2.9.5-3.9 1.7-1.9.8-4.2-1.1-5.9 1-1.3 1.8-3.6-1.4-4.8 1v.1c-1.3.5-2-.7-2.9-1.2.1-.2.1-.5 0-.7 2.1-.4 3.9-1.1 4.8-3.2 1.2-.1 2.5-.1 3.7-.2 1.7-.6 3.1-1.5 3.9-3.5-1.9.4-3.4.8-4.8 1.1-1 0-2.2-.7-3 .5h-1.8c-.3.2-.7.3-1 .5-3-.7-5.7 1-8.7.8-1.7-.1-3 1.8-4.9 1.2-4.5 1.2-8.6 3.3-12.6 5.8-3.9.8-6.6 4.1-10.6 4.7-1 .4-1.6 1-1.7 2.1v.2c-2.1 1-4.6 1.4-5.2 4.3-1.2.5-2.9-.3-3.8 1.1-.3.1-.7.1-1 .2-.4-.3-.7-.7-1.1-1 .4-1 .9-2 1.3-3 .9.3 1.9 1.3 2.7-.1 1.1-.6 2.6-1 2.1-2.8l-.3-.9c-.2-1.2 1-1.5 1.7-2 .7-.3 1.4-.7 1.4-1.5.2.1.5.1.7.1 1.5-.4 2.7-1.5 4.1-2.2 0 .1.1.2.1.3-.1 0-.2 0-.3.1-1.2.7-2.1 1.6-2.8 2.8-.2.5-.1.8.3 1.1.3-.1.5 0 .7.2l3.9-3c1.7.8 2.4-1 3.6-1.4-.8-.2-1.7-.3-2.5-.5-.3-.7 0-1.2.3-1.7.3-.1.5-.3.8-.4.8-.3 1.1-1.1 1.8-1.7h.1c1.2-.8 2.6-1.1 3.7-1.9.3-.7.6-1.4 1-2.1.3-.1.7-.1 1-.2 2.2-.6 4.5-1.2 6.7-1.9 1.9-.2 3.6-.6 4.4-2.6v-.1c1.5-.3 3-.6 4.4-.8 1 .7 2 .6 2.9-.1l-.2-.1.1-.2c.3 0 .7.1 1 .1.1-.1.2-.2.4-.3.1 0 .1.1.2.1-.2.1-.4.2-.5.3.3.6.7 1.2 1 1.9.3.4.6.4 1 .1 0-.3.1-.6.2-.9.3-.3.5-.7.8-1 .3.2.6.4.8.6-.1 0-.2.1-.2.1-.6.6-1.2 1.2-.6 2.1 1.1 1.3 2.5 1.1 3.9.9l-.1.2c2-.2 3.9-.3 5.9-.5 1.1-.2 1.4-1.9 2.8-1.3.3 1 1.1.5 1.7.5.1-1.1-.2-2.4 1.3-2.9h3.5c-.2-.5-.4-1-.5-1.5 1.2-.1 2.5-.3 3.7-.4.7.1 1.3.2 2 .3.3-.1.6-.1.8-.2.1-.2.1-.4.2-.6.1 0 .3.1.4.1.2-.1.3-.3.5-.4V16c.7-.6 1.4-1.3 2-1.9 1.4-1.7 1.4-3.1-.9-3.8-.4.3-.6.7-.7 1.1-.1-.1-.3-.2-.4-.3-.3.1-.7.1-1 .2v-.1.1c0-1.4-.2-2.5-1.9-2.7-1.9-.5-1.1-1.9-1-3.1.1-.1.3-.2.3-.3s-.1-.3-.1-.3c-1.5-.3-3-1.3-4.2.6-.9.4-1.6 1-2 1.9-.6.4-1.2.8-1.9 1.1-1.1 0-2.3-.6-2.9.8-1.3.3-2.9-.5-4 .9-.3-.1-.6-.1-.8.1-1.3-.2-2.6-.5-3.9-.8-1.6-.3-3.1-.1-3.9 1.6-.6.1-1.3.2-1.9.2-.8-.1-1.6-.4-1.8.7.5 0 1 0 1.5-.1v.3c.1.3.3.5.6.7-.7.1-1.4.2-2.1.2-.1.3-.1.5-.1.8 1-.1 2-.1 2.9-.2v-.4.4c.5.1.8-.1.9-.5h.1v-.1c.5.3 1 .4 1.6.2l.3-.3c0 .1-.1.1-.1.2-.4.5-.4 1-.3 1.6-1.8 0-3.1 1.1-4.4 2.1-.1-.2-.1-.3.1-.5-.3.2-.7.4-1 .5-.6-.3-1.2-.6-1.8-.8-.4.9-.9 1.7-1.3 2.6-1.6 0-3.2 0-4.7-.1-.3.1-.5.2-.8.3l-2.1 1.2c-.9.7-2.2.3-3.2.9-.3 0-.6.1-.9.1-.8.2-1.5.5-2.3.9-.9.8-2.5.7-2.6 2.3 0 .1 0 .1.1.1-1.2-.7-1.9-.3-2.4.6-.6-.2-1.1-.2-1.7 0-.1.1-.3.2-.4.3.4-.6.4-1.2-.1-1.8-1.5.1-3.2-.2-3.9 1.7-1.6.8-3.6 1-4.6 2.8 2 .6 3.7.6 4.7-1.5 1.4-.1 2.4-1.5 3.9-1.1-2.5 4-7.6 4.5-10.8 7.7l-.9.3c-.7 1.9-2.8 2.3-4 3.7-.6.3-1.2.7-1.8 1l-1.1 1.1c-2.8-.7-3.2 3.2-5.8 2.9-1.6 1.1-3.3 2.3-4.9 3.4-1.3.2-2.4.7-2.9 2.1-2 .7-3.3 3-5.7 3-.1-.3-.1-.6.1-.9-.4-.3-.8-.7-1.2-1 0-.3 0-.6-.1-.9-.3-.1-.5-.1-.8 0-.1.6.2.9.8.9-.1.3-.1.7-.2 1 .1.3.2.6.4.9v2c-.1.3-.2.6-.2.9l-.8.8c-.1 0-.1.1-.2.2-.3.3-.6.6-.9 1h-.9v1.2c.4.2.8.2 1.1-.1.1.2.3.3.4.5-.2.1-.3.3-.4.5-.1.6-.1 1.2-.2 1.9-1.2.3-2.5.5-3.7.8 1.3-.9 2.3-1.9 1.9-3.9-2.4.7-5.6.4-5.9 4.1.8.8 1.7.9 2.8.6h.1c0 .6 0 1.2-.1 1.8q-.6 0-1.2.3c-.3.2-.7.4-1 .5-.9.1-1.6.4-2.3.9-.2.1-.5.2-.7.3-.4.2-.6.6-.7 1l.3.6 2.1 3c-2 1.2-3.9 2.4-5.9 3.7 3 1.1 5.1-1.6 7.7-2 1.7-1.3 3.3-2.6 5-3.8v-1.6c.3 0 .5-.1.8-.3 1.4.2 2.9.6 4-.9 1.6-2.4 5.4-1.9 6.5-4.9.4-.4.8-.7 1.2-1.1 1.4.5 2.7.1 3.8-.8 1.8.3 2.4-1.7 3.9-2 .9 0 1.9.1 2.8.1-.8 1.5-3.4.9-3.6 3.1-1 1.3-3.1 1.6-3.8 3.7 1.5.2 2.4-1.4 3.6-.7.9.1 2 .5 2-.7.7.2 1.3.1 1.9-.2.7-1.1 2-1.6 2.4-2.9V58c.2-.1.3-.2.5-.3.5-.5 1.1-1 1.6-1.6.1.7.4 1.3.7 1.8-.5 0-1 .1-1.4.3-1.2.7-2.3 1.4-3.2 2.4-.2.6-.3 1.1-.1 1.7-1.1-.8-2.2-.8-3.3.3-.5.8-1.1 1.6-2.1 3.1 2.2-1.2 3.6-.9 5-.3 0-.1.1-.1.2-.1-.1 0-.1.1-.2.1 1.8.4 3.2 0 4-1.8 1.2-.8 3-.4 3.7-2.1 2.6-1.9 5.2-3.8 7.8-5.6 1.2-.1 2.5-.2 3.7-.3.6-.3 1-.8 1.4-1.3.2-.2.4-.5.6-.7 2.6-1.1 4.6-3.7 7.8-3.6 4-.6 7.6-2.2 11.4-3.4 1.4-.2 2.9-.2 4.3-.6 1.4-.5 2.9-.6 4.1-1.7v-.1c.2.2.5.2.9.1V44h.5c.1.2.2.4.4.6 1 .6 2.2.6 3.3.4.6-.1 1.3-.3 1.9-.5 1.5-.3 2.9.3 4.4 0 .4-.2.9-.5 1.3-.7.9 0 1.7.1 2.6.1.1.5.2 1 .3 1.4.6-.1 1.1-.2 1.7-.3 1.4 1.2 2.3.7 2.9-.9 1.5.2 2-.6 2-1.8l-.3-.3c2.1-.1 4.8.9 4.7-2.8 0-1.4 1.3-3-.7-4m-7.9-21.9c-.1 0-.3 0-.4-.1-.4 0-.8 0-1.2.1-.6.2-1.1.4-1.6.7-.3.2-.5.4-.7.6-.2-.8.3-1.5.4-2.2 0-.1 0-.2-.1-.3 1.4 1 2.7 1.2 4 .9-.1.1-.2.2-.4.3m-14.7 10.2q0 .15 0 0 0 .15 0 0M157 11.8l.5-.5c.5.4 1.2.4 1.9.2.1-.1.3-.2.4-.3q-.3.45-.3.9c-.7.1-1.3.3-1.8.8-.1.1-.1.2-.1.3h-.5c-1-.1-2-.4-3-.3 1-.2 2-.6 2.9-1.1M69.4 54.1h.1c-.1.1-.1.3-.1.4h-.7c.3 0 .5-.2.7-.4m16.8-1.3v-.2h.1c0 .1 0 .2-.1.2m-4-1.3c-.9-.5-1.8-.3-2.6.1 0-.5-.3-1-.6-1.5.4-.1.6-.3.8-.7v-.5h.3c.1.1.2.3.4.4.5.2 1.1.2 1.5-.1.2.5.4.8.7 1.2-.3.2-.5.5-.5 1.1m-11.5 5.7c.1-.3.3-.4.6-.5-.1.2-.2.3-.2.5zM117.5 37c-.1 0-.1.1 0 0q-.15.15 0 0c-.1.1-.1 0 0 0m-11.9 5.3V42c.1 0 .2.1.3.1-.1.1-.2.2-.3.2m-30.8 9.9h-.2c0-.1.1-.1.2 0q0-.15 0 0m11.4.6q0 .15 0 0 0 .15 0 0 0 .15 0 0m44.3-20.5c-.1.2-.1.5-.1.7-.7-.4-1.5-.5-2.3-.4.3-.2.5-.5.7-.9.5.4 1.1.6 1.7.6M67.2 55h.6v.5c-.3 0-.5 0-.8.1.1-.2.1-.5 0-.7 0 0 .1.1.2.1m-4.1 8.7c-.1.1-.2.1-.3.2h-.1c.1-.1.2-.1.4-.2m1.7-3c.2-.3.4-.6.1-1.2 1-.4 1.9-.7 2.9-1.1h1.1c-.7.8-1.5 1.5-1.2 2.6-.1-.1-.3-.3-.5-.3q-1.2-.3-2.4 0M132.4 137.5c0 .3.2.2.4.2 0 .2.1.3.2.3h.4c.1 0 .2.1.2.1.1 0 .2.1.4 0 .1 0 .2 0 .3-.1h.2c.1 0 .1 0 .1-.1l-.1.1.1-.1c0-.1.1-.1.1-.2q.3 0 .3.3c0 .1-.4.1-.2.4.4-.3.8-.5 1.2-.8l.3-.3c.1 0 .2 0 .3-.1.1.1.3.1.4 0 .1 0 .1 0 .1-.1v-.1h.1c.2-.1.5 0 .6-.3.4 0 .2-.3.2-.5.2-.2.4-.2.5-.4.1 0 .2-.1.3-.2.4-.1.5-.4.6-.7.2-.2.2-.5.3-.7.1-.1.1-.2.1-.3.1-.1.2-.2.1-.4.2-.8.3-1.5 0-2.3-.1-.3-.2-.5-.5-.6 0-.2-.2-.3-.4-.4-.7-.1-1.4-.2-2.2 0-.4 0-.8-.1-1.2.1-.2 0-.4.1-.5.3h-.1c-.2.1-.3.1-.5.2h-.1c-.2.2-.6-.1-.6.4-.1 0-.2.1-.3.1-.3-.2-.5 0-.7.2-.2.1-.4.2-.4.5-.3.2-.4.4 0 .7 0 .1-.1.2-.1.4-.2.2-.4.4-.1.6-.1.3 0 .5 0 .8-.1.2 0 .4.1.5 0 .3-.1.5-.1.8-.6.3-.4.7-.3 1.2.2.3.4.4.5.5m3-2.7s.1 0 0 0m-2.2-2q0-.15 0 0 0-.15 0 0 0-.15 0 0 0-.15 0 0 0-.15 0 0 0-.15 0 0m-.4 4.6c0-.1.1-.1 0 0q.15-.15 0 0c.1-.1 0-.1 0 0m-.5-2.8q0 .15 0 0 0 .15 0 0M127 59.4c-.9.3-2.5-.5-2.6 1.1-.1 1.3 1.3 1 2.1 1s1.9.4 2.3-.8c-.3-.9-.7-1.7-1.8-1.3M119.3 60.5c0 .6.2.9.8.8 0-.5-.2-.9-.8-.8"/><path d="M127.9 21.7c-1.5 2-4.6 2.2-5.8 4.7 2.8.5 5.5.2 7.6-2.1.3-.3.4-.7.1-1.1-.4-.7-1-1.2-1.9-1.5M137.5 191.2c.2.1.2-.1.2-.2-.1 0-.1.1-.2.2M142.5 189.4l-.2.2c.2.1.3 0 .2-.2"/></svg>